<svg xmlns="http://www.w3.org/2000/svg" version="1.1" xmlns:xlink="http://www.w3.org/1999/xlink" xmlns:svgjs="http://svgjs.com/svgjs" width="1920" height="1080" preserveAspectRatio="none" viewBox="0 0 1920 1080"><g mask="url(&quot;#SvgjsMask1093&quot;)" fill="none"><path d="M 0,358 C 128,313.6 384,136.4 640,136 C 896,135.6 1024,373.6 1280,356 C 1536,338.4 1792,109.6 1920,48L1920 1080L0 1080z" fill="rgba(255, 255, 255, 0)"></path><path d="M 0,652 C 128,628 384,542 640,532 C 896,522 1024,616.2 1280,602 C 1536,587.8 1792,489.2 1920,461L1920 1080L0 1080z" fill="rgba(255, 242, 191, 1)"></path><path d="M 0,1073 C 128,1036.2 384,903.4 640,889 C 896,874.6 1024,1001 1280,1001 C 1536,1001 1792,911.4 1920,889L1920 1080L0 1080z" fill="rgba(102, 66, 0, 1)"></path></g><defs><mask id="SvgjsMask1093"><rect width="1920" height="1080" fill="#ffffff"></rect></mask></defs></svg>